<mxfile host="app.diagrams.net" modified="2024-02-01T07:45:08.072Z" agent="Mozilla/5.0 (Windows NT 10.0; Win64; x64) AppleWebKit/537.36 (KHTML, like Gecko) Chrome/120.0.0.0 Safari/537.36 OPR/106.0.0.0 (Edition Yx GX)" version="23.0.2" etag="yuLbnAYI7g6mJLiUMzeA" type="github">
  <diagram name="Страница — 1" id="U-i0Kl1Q6oCPXDtLNF6c">
    <mxGraphModel>
      <root>
        <mxCell id="0" />
        <mxCell id="1" parent="0" />
      </root>
    </mxGraphModel>
  </diagram>
</mxfile>
